<?xml version="1.0" encoding="UTF-8" standalone="no"?>
<!DOCTYPE svg PUBLIC "-//W3C//DTD SVG 1.1//EN"
 "http://www.w3.org/Graphics/SVG/1.1/DTD/svg11.dtd">
<!-- Generated by graphviz version 2.38.0 (20140413.2041)
 -->
<!-- Title: controllers_diagram Pages: 1 -->
<svg width="732pt" height="804pt"
 viewBox="0.00 0.00 732.00 804.00" xmlns="http://www.w3.org/2000/svg" xmlns:xlink="http://www.w3.org/1999/xlink">
<g id="graph0" class="graph" transform="scale(1 1) rotate(0) translate(238 458)">
<title>controllers_diagram</title>
<polygon fill="none" stroke="none" points="-238,346 -238,-458 494,-458 494,346 -238,346"/>
<!-- _diagram_info -->
<g id="node1" class="node"><title>_diagram_info</title>
<text text-anchor="start" x="8" y="152.4" font-family="Times,serif" font-size="13.00">Controllers diagram</text>
<text text-anchor="start" x="8" y="166.4" font-family="Times,serif" font-size="13.00">Date: Jun 10 2017 &#45; 19:28</text>
<text text-anchor="start" x="8" y="180.4" font-family="Times,serif" font-size="13.00">Migration version: 20170606025725</text>
<text text-anchor="start" x="8" y="194.4" font-family="Times,serif" font-size="13.00">Generated by RailRoady 1.5.3</text>
<text text-anchor="start" x="8" y="208.4" font-family="Times,serif" font-size="13.00">http://railroady.prestonlee.com</text>
</g>
<!-- AssessmentsController -->
<g id="node2" class="node"><title>AssessmentsController</title>
<path fill="none" stroke="black" d="M174,-162C174,-162 292,-162 292,-162 298,-162 304,-168 304,-174 304,-174 304,-318 304,-318 304,-324 298,-330 292,-330 292,-330 174,-330 174,-330 168,-330 162,-324 162,-318 162,-318 162,-174 162,-174 162,-168 168,-162 174,-162"/>
<text text-anchor="middle" x="233" y="-314.8" font-family="Times,serif" font-size="14.00">AssessmentsController</text>
<polyline fill="none" stroke="black" points="162,-307 304,-307 "/>
<text text-anchor="start" x="170" y="-291.8" font-family="Times,serif" font-size="14.00">clients</text>
<text text-anchor="start" x="170" y="-276.8" font-family="Times,serif" font-size="14.00">index</text>
<text text-anchor="start" x="170" y="-261.8" font-family="Times,serif" font-size="14.00">new</text>
<polyline fill="none" stroke="black" points="162,-254 304,-254 "/>
<polyline fill="none" stroke="black" points="162,-230 304,-230 "/>
<text text-anchor="start" x="170" y="-214.8" font-family="Times,serif" font-size="14.00">_layout</text>
<text text-anchor="start" x="170" y="-199.8" font-family="Times,serif" font-size="14.00">assessment_params</text>
<text text-anchor="start" x="170" y="-184.8" font-family="Times,serif" font-size="14.00">filter_by_ids</text>
<text text-anchor="start" x="170" y="-169.8" font-family="Times,serif" font-size="14.00">set_assessment</text>
</g>
<!-- Pollock3Controller -->
<g id="node3" class="node"><title>Pollock3Controller</title>
<path fill="none" stroke="black" d="M-222,-1C-222,-1 -122,-1 -122,-1 -116,-1 -110,-7 -110,-13 -110,-13 -110,-187 -110,-187 -110,-193 -116,-199 -122,-199 -122,-199 -222,-199 -222,-199 -228,-199 -234,-193 -234,-187 -234,-187 -234,-13 -234,-13 -234,-7 -228,-1 -222,-1"/>
<text text-anchor="middle" x="-172" y="-183.8" font-family="Times,serif" font-size="14.00">Pollock3Controller</text>
<polyline fill="none" stroke="black" points="-234,-176 -110,-176 "/>
<text text-anchor="start" x="-226" y="-160.8" font-family="Times,serif" font-size="14.00">create</text>
<text text-anchor="start" x="-226" y="-145.8" font-family="Times,serif" font-size="14.00">destroy</text>
<text text-anchor="start" x="-226" y="-130.8" font-family="Times,serif" font-size="14.00">edit</text>
<text text-anchor="start" x="-226" y="-115.8" font-family="Times,serif" font-size="14.00">new</text>
<text text-anchor="start" x="-226" y="-100.8" font-family="Times,serif" font-size="14.00">show</text>
<text text-anchor="start" x="-226" y="-85.8" font-family="Times,serif" font-size="14.00">update</text>
<polyline fill="none" stroke="black" points="-234,-78 -110,-78 "/>
<polyline fill="none" stroke="black" points="-234,-54 -110,-54 "/>
<text text-anchor="start" x="-226" y="-38.8" font-family="Times,serif" font-size="14.00">_layout</text>
<text text-anchor="start" x="-226" y="-23.8" font-family="Times,serif" font-size="14.00">assessment_params</text>
<text text-anchor="start" x="-226" y="-8.8" font-family="Times,serif" font-size="14.00">set_assessment</text>
</g>
<!-- GymcardsController -->
<g id="node4" class="node"><title>GymcardsController</title>
<path fill="none" stroke="black" d="M-60,-144.5C-60,-144.5 44,-144.5 44,-144.5 50,-144.5 56,-150.5 56,-156.5 56,-156.5 56,-345.5 56,-345.5 56,-351.5 50,-357.5 44,-357.5 44,-357.5 -60,-357.5 -60,-357.5 -66,-357.5 -72,-351.5 -72,-345.5 -72,-345.5 -72,-156.5 -72,-156.5 -72,-150.5 -66,-144.5 -60,-144.5"/>
<text text-anchor="middle" x="-8" y="-342.3" font-family="Times,serif" font-size="14.00">GymcardsController</text>
<polyline fill="none" stroke="black" points="-72,-334.5 56,-334.5 "/>
<text text-anchor="start" x="-64" y="-319.3" font-family="Times,serif" font-size="14.00">clients</text>
<text text-anchor="start" x="-64" y="-304.3" font-family="Times,serif" font-size="14.00">create</text>
<text text-anchor="start" x="-64" y="-289.3" font-family="Times,serif" font-size="14.00">destroy</text>
<text text-anchor="start" x="-64" y="-274.3" font-family="Times,serif" font-size="14.00">edit</text>
<text text-anchor="start" x="-64" y="-259.3" font-family="Times,serif" font-size="14.00">index</text>
<text text-anchor="start" x="-64" y="-244.3" font-family="Times,serif" font-size="14.00">new</text>
<text text-anchor="start" x="-64" y="-229.3" font-family="Times,serif" font-size="14.00">show</text>
<text text-anchor="start" x="-64" y="-214.3" font-family="Times,serif" font-size="14.00">update</text>
<polyline fill="none" stroke="black" points="-72,-206.5 56,-206.5 "/>
<polyline fill="none" stroke="black" points="-72,-182.5 56,-182.5 "/>
<text text-anchor="start" x="-64" y="-167.3" font-family="Times,serif" font-size="14.00">_layout</text>
<text text-anchor="start" x="-64" y="-152.3" font-family="Times,serif" font-size="14.00">gymcards_params</text>
</g>
<!-- ApplicationController -->
<g id="node5" class="node"><title>ApplicationController</title>
<path fill="none" stroke="black" d="M12,341.5C12,341.5 124,341.5 124,341.5 130,341.5 136,335.5 136,329.5 136,329.5 136,260.5 136,260.5 136,254.5 130,248.5 124,248.5 124,248.5 12,248.5 12,248.5 6,248.5 0,254.5 0,260.5 0,260.5 0,329.5 0,329.5 0,335.5 6,341.5 12,341.5"/>
<text text-anchor="middle" x="68" y="263.7" font-family="Times,serif" font-size="14.00">ApplicationController</text>
<polyline fill="none" stroke="black" points="0,271.5 136,271.5 "/>
<text text-anchor="start" x="8" y="286.7" font-family="Times,serif" font-size="14.00">user_not_authorized</text>
<polyline fill="none" stroke="black" points="0,294.5 136,294.5 "/>
<polyline fill="none" stroke="black" points="0,318.5 136,318.5 "/>
<text text-anchor="start" x="8" y="333.7" font-family="Times,serif" font-size="14.00">_layout</text>
</g>
<!-- HomeController -->
<g id="node6" class="node"><title>HomeController</title>
<path fill="none" stroke="black" d="M210,-360.5C210,-360.5 292,-360.5 292,-360.5 298,-360.5 304,-366.5 304,-372.5 304,-372.5 304,-441.5 304,-441.5 304,-447.5 298,-453.5 292,-453.5 292,-453.5 210,-453.5 210,-453.5 204,-453.5 198,-447.5 198,-441.5 198,-441.5 198,-372.5 198,-372.5 198,-366.5 204,-360.5 210,-360.5"/>
<text text-anchor="middle" x="251" y="-438.3" font-family="Times,serif" font-size="14.00">HomeController</text>
<polyline fill="none" stroke="black" points="198,-430.5 304,-430.5 "/>
<text text-anchor="start" x="206" y="-415.3" font-family="Times,serif" font-size="14.00">index</text>
<polyline fill="none" stroke="black" points="198,-407.5 304,-407.5 "/>
<polyline fill="none" stroke="black" points="198,-383.5 304,-383.5 "/>
<text text-anchor="start" x="206" y="-368.3" font-family="Times,serif" font-size="14.00">_layout</text>
</g>
<!-- ClientsController -->
<g id="node7" class="node"><title>ClientsController</title>
<path fill="none" stroke="black" d="M-204,-234.5C-204,-234.5 -118,-234.5 -118,-234.5 -112,-234.5 -106,-240.5 -106,-246.5 -106,-246.5 -106,-435.5 -106,-435.5 -106,-441.5 -112,-447.5 -118,-447.5 -118,-447.5 -204,-447.5 -204,-447.5 -210,-447.5 -216,-441.5 -216,-435.5 -216,-435.5 -216,-246.5 -216,-246.5 -216,-240.5 -210,-234.5 -204,-234.5"/>
<text text-anchor="middle" x="-161" y="-432.3" font-family="Times,serif" font-size="14.00">ClientsController</text>
<polyline fill="none" stroke="black" points="-216,-424.5 -106,-424.5 "/>
<text text-anchor="start" x="-208" y="-409.3" font-family="Times,serif" font-size="14.00">create</text>
<text text-anchor="start" x="-208" y="-394.3" font-family="Times,serif" font-size="14.00">destroy</text>
<text text-anchor="start" x="-208" y="-379.3" font-family="Times,serif" font-size="14.00">edit</text>
<text text-anchor="start" x="-208" y="-364.3" font-family="Times,serif" font-size="14.00">index</text>
<text text-anchor="start" x="-208" y="-349.3" font-family="Times,serif" font-size="14.00">new</text>
<text text-anchor="start" x="-208" y="-334.3" font-family="Times,serif" font-size="14.00">show</text>
<text text-anchor="start" x="-208" y="-319.3" font-family="Times,serif" font-size="14.00">update</text>
<polyline fill="none" stroke="black" points="-216,-311.5 -106,-311.5 "/>
<polyline fill="none" stroke="black" points="-216,-287.5 -106,-287.5 "/>
<text text-anchor="start" x="-208" y="-272.3" font-family="Times,serif" font-size="14.00">_layout</text>
<text text-anchor="start" x="-208" y="-257.3" font-family="Times,serif" font-size="14.00">client_params</text>
<text text-anchor="start" x="-208" y="-242.3" font-family="Times,serif" font-size="14.00">set_client</text>
</g>
<!-- RegistrationsController -->
<g id="node8" class="node"><title>RegistrationsController</title>
<path fill="none" stroke="black" d="M354,-216.5C354,-216.5 478,-216.5 478,-216.5 484,-216.5 490,-222.5 490,-228.5 490,-228.5 490,-327.5 490,-327.5 490,-333.5 484,-339.5 478,-339.5 478,-339.5 354,-339.5 354,-339.5 348,-339.5 342,-333.5 342,-327.5 342,-327.5 342,-228.5 342,-228.5 342,-222.5 348,-216.5 354,-216.5"/>
<text text-anchor="middle" x="416" y="-324.3" font-family="Times,serif" font-size="14.00">RegistrationsController</text>
<polyline fill="none" stroke="black" points="342,-316.5 490,-316.5 "/>
<text text-anchor="start" x="350" y="-301.3" font-family="Times,serif" font-size="14.00">create</text>
<polyline fill="none" stroke="black" points="342,-293.5 490,-293.5 "/>
<polyline fill="none" stroke="black" points="342,-269.5 490,-269.5 "/>
<text text-anchor="start" x="350" y="-254.3" font-family="Times,serif" font-size="14.00">_layout</text>
<text text-anchor="start" x="350" y="-239.3" font-family="Times,serif" font-size="14.00">account_update_params</text>
<text text-anchor="start" x="350" y="-224.3" font-family="Times,serif" font-size="14.00">sign_up_params</text>
</g>
<!-- EmployeesController -->
<g id="node9" class="node"><title>EmployeesController</title>
<path fill="none" stroke="black" d="M-59.5,107.5C-59.5,107.5 49.5,107.5 49.5,107.5 55.5,107.5 61.5,101.5 61.5,95.5 61.5,95.5 61.5,-93.5 61.5,-93.5 61.5,-99.5 55.5,-105.5 49.5,-105.5 49.5,-105.5 -59.5,-105.5 -59.5,-105.5 -65.5,-105.5 -71.5,-99.5 -71.5,-93.5 -71.5,-93.5 -71.5,95.5 -71.5,95.5 -71.5,101.5 -65.5,107.5 -59.5,107.5"/>
<text text-anchor="middle" x="-5" y="-90.3" font-family="Times,serif" font-size="14.00">EmployeesController</text>
<polyline fill="none" stroke="black" points="-71.5,-82.5 61.5,-82.5 "/>
<text text-anchor="start" x="-63.5" y="-67.3" font-family="Times,serif" font-size="14.00">create</text>
<text text-anchor="start" x="-63.5" y="-52.3" font-family="Times,serif" font-size="14.00">destroy</text>
<text text-anchor="start" x="-63.5" y="-37.3" font-family="Times,serif" font-size="14.00">edit</text>
<text text-anchor="start" x="-63.5" y="-22.3" font-family="Times,serif" font-size="14.00">index</text>
<text text-anchor="start" x="-63.5" y="-7.3" font-family="Times,serif" font-size="14.00">new</text>
<text text-anchor="start" x="-63.5" y="7.7" font-family="Times,serif" font-size="14.00">show</text>
<text text-anchor="start" x="-63.5" y="22.7" font-family="Times,serif" font-size="14.00">update</text>
<polyline fill="none" stroke="black" points="-71.5,30.5 61.5,30.5 "/>
<polyline fill="none" stroke="black" points="-71.5,54.5 61.5,54.5 "/>
<text text-anchor="start" x="-63.5" y="69.7" font-family="Times,serif" font-size="14.00">_layout</text>
<text text-anchor="start" x="-63.5" y="84.7" font-family="Times,serif" font-size="14.00">employee_params</text>
<text text-anchor="start" x="-63.5" y="99.7" font-family="Times,serif" font-size="14.00">set_employee</text>
</g>
<!-- CyclesController -->
<g id="node10" class="node"><title>CyclesController</title>
<path fill="none" stroke="black" d="M354.5,17C354.5,17 439.5,17 439.5,17 445.5,17 451.5,11 451.5,5 451.5,5 451.5,-169 451.5,-169 451.5,-175 445.5,-181 439.5,-181 439.5,-181 354.5,-181 354.5,-181 348.5,-181 342.5,-175 342.5,-169 342.5,-169 342.5,5 342.5,5 342.5,11 348.5,17 354.5,17"/>
<text text-anchor="middle" x="397" y="-165.8" font-family="Times,serif" font-size="14.00">CyclesController</text>
<polyline fill="none" stroke="black" points="342.5,-158 451.5,-158 "/>
<text text-anchor="start" x="350.5" y="-142.8" font-family="Times,serif" font-size="14.00">create</text>
<text text-anchor="start" x="350.5" y="-127.8" font-family="Times,serif" font-size="14.00">edit</text>
<text text-anchor="start" x="350.5" y="-112.8" font-family="Times,serif" font-size="14.00">index</text>
<text text-anchor="start" x="350.5" y="-97.8" font-family="Times,serif" font-size="14.00">new</text>
<text text-anchor="start" x="350.5" y="-82.8" font-family="Times,serif" font-size="14.00">show</text>
<text text-anchor="start" x="350.5" y="-67.8" font-family="Times,serif" font-size="14.00">update</text>
<polyline fill="none" stroke="black" points="342.5,-60 451.5,-60 "/>
<polyline fill="none" stroke="black" points="342.5,-36 451.5,-36 "/>
<text text-anchor="start" x="350.5" y="-20.8" font-family="Times,serif" font-size="14.00">_layout</text>
<text text-anchor="start" x="350.5" y="-5.8" font-family="Times,serif" font-size="14.00">cycle_params</text>
<text text-anchor="start" x="350.5" y="9.2" font-family="Times,serif" font-size="14.00">load_gymcard</text>
</g>
<!-- EquipmentController -->
<g id="node11" class="node"><title>EquipmentController</title>
<path fill="none" stroke="black" d="M102,89.5C102,89.5 210,89.5 210,89.5 216,89.5 222,83.5 222,77.5 222,77.5 222,-111.5 222,-111.5 222,-117.5 216,-123.5 210,-123.5 210,-123.5 102,-123.5 102,-123.5 96,-123.5 90,-117.5 90,-111.5 90,-111.5 90,77.5 90,77.5 90,83.5 96,89.5 102,89.5"/>
<text text-anchor="middle" x="156" y="-108.3" font-family="Times,serif" font-size="14.00">EquipmentController</text>
<polyline fill="none" stroke="black" points="90,-100.5 222,-100.5 "/>
<text text-anchor="start" x="98" y="-85.3" font-family="Times,serif" font-size="14.00">create</text>
<text text-anchor="start" x="98" y="-70.3" font-family="Times,serif" font-size="14.00">destroy</text>
<text text-anchor="start" x="98" y="-55.3" font-family="Times,serif" font-size="14.00">edit</text>
<text text-anchor="start" x="98" y="-40.3" font-family="Times,serif" font-size="14.00">index</text>
<text text-anchor="start" x="98" y="-25.3" font-family="Times,serif" font-size="14.00">new</text>
<text text-anchor="start" x="98" y="-10.3" font-family="Times,serif" font-size="14.00">show</text>
<text text-anchor="start" x="98" y="4.7" font-family="Times,serif" font-size="14.00">update</text>
<polyline fill="none" stroke="black" points="90,12.5 222,12.5 "/>
<polyline fill="none" stroke="black" points="90,36.5 222,36.5 "/>
<text text-anchor="start" x="98" y="51.7" font-family="Times,serif" font-size="14.00">_layout</text>
<text text-anchor="start" x="98" y="66.7" font-family="Times,serif" font-size="14.00">equipment_params</text>
<text text-anchor="start" x="98" y="81.7" font-family="Times,serif" font-size="14.00">set_equipment</text>
</g>
<!-- Pollock7Controller -->
<g id="node12" class="node"><title>Pollock7Controller</title>
<path fill="none" stroke="black" d="M-222,233C-222,233 -122,233 -122,233 -116,233 -110,227 -110,221 -110,221 -110,47 -110,47 -110,41 -116,35 -122,35 -122,35 -222,35 -222,35 -228,35 -234,41 -234,47 -234,47 -234,221 -234,221 -234,227 -228,233 -222,233"/>
<text text-anchor="middle" x="-172" y="50.2" font-family="Times,serif" font-size="14.00">Pollock7Controller</text>
<polyline fill="none" stroke="black" points="-234,58 -110,58 "/>
<text text-anchor="start" x="-226" y="73.2" font-family="Times,serif" font-size="14.00">create</text>
<text text-anchor="start" x="-226" y="88.2" font-family="Times,serif" font-size="14.00">destroy</text>
<text text-anchor="start" x="-226" y="103.2" font-family="Times,serif" font-size="14.00">edit</text>
<text text-anchor="start" x="-226" y="118.2" font-family="Times,serif" font-size="14.00">new</text>
<text text-anchor="start" x="-226" y="133.2" font-family="Times,serif" font-size="14.00">show</text>
<text text-anchor="start" x="-226" y="148.2" font-family="Times,serif" font-size="14.00">update</text>
<polyline fill="none" stroke="black" points="-234,156 -110,156 "/>
<polyline fill="none" stroke="black" points="-234,180 -110,180 "/>
<text text-anchor="start" x="-226" y="195.2" font-family="Times,serif" font-size="14.00">_layout</text>
<text text-anchor="start" x="-226" y="210.2" font-family="Times,serif" font-size="14.00">assessment_params</text>
<text text-anchor="start" x="-226" y="225.2" font-family="Times,serif" font-size="14.00">set_assessment</text>
</g>
<!-- IcqController -->
<g id="node13" class="node"><title>IcqController</title>
<path fill="none" stroke="black" d="M264,251C264,251 364,251 364,251 370,251 376,245 376,239 376,239 376,65 376,65 376,59 370,53 364,53 364,53 264,53 264,53 258,53 252,59 252,65 252,65 252,239 252,239 252,245 258,251 264,251"/>
<text text-anchor="middle" x="314" y="68.2" font-family="Times,serif" font-size="14.00">IcqController</text>
<polyline fill="none" stroke="black" points="252,76 376,76 "/>
<text text-anchor="start" x="260" y="91.2" font-family="Times,serif" font-size="14.00">create</text>
<text text-anchor="start" x="260" y="106.2" font-family="Times,serif" font-size="14.00">destroy</text>
<text text-anchor="start" x="260" y="121.2" font-family="Times,serif" font-size="14.00">edit</text>
<text text-anchor="start" x="260" y="136.2" font-family="Times,serif" font-size="14.00">new</text>
<text text-anchor="start" x="260" y="151.2" font-family="Times,serif" font-size="14.00">show</text>
<text text-anchor="start" x="260" y="166.2" font-family="Times,serif" font-size="14.00">update</text>
<polyline fill="none" stroke="black" points="252,174 376,174 "/>
<polyline fill="none" stroke="black" points="252,198 376,198 "/>
<text text-anchor="start" x="260" y="213.2" font-family="Times,serif" font-size="14.00">_layout</text>
<text text-anchor="start" x="260" y="228.2" font-family="Times,serif" font-size="14.00">assessment_params</text>
<text text-anchor="start" x="260" y="243.2" font-family="Times,serif" font-size="14.00">set_assessment</text>
</g>
</g>
</svg>
