<?xml version="1.0" encoding="UTF-8" standalone="no"?>
<!DOCTYPE svg PUBLIC "-//W3C//DTD SVG 1.1//EN"
 "http://www.w3.org/Graphics/SVG/1.1/DTD/svg11.dtd">
<!-- Generated by graphviz version 2.38.0 (20140413.2041)
 -->
<!-- Title: models_diagram Pages: 1 -->
<svg width="1008pt" height="302pt"
 viewBox="0.00 0.00 1008.00 302.00" xmlns="http://www.w3.org/2000/svg" xmlns:xlink="http://www.w3.org/1999/xlink">
<g id="graph0" class="graph" transform="scale(1 1) rotate(0) translate(4 298)">
<title>models_diagram</title>
<polygon fill="none" stroke="none" points="-4,4 -4,-298 1004,-298 1004,4 -4,4"/>
<!-- _diagram_info -->
<g id="node1" class="node"><title>_diagram_info</title>
<text text-anchor="start" x="8" y="-279.6" font-family="Times,serif" font-size="13.00">Models diagram</text>
<text text-anchor="start" x="8" y="-265.6" font-family="Times,serif" font-size="13.00">Date: Jun 10 2017 &#45; 19:28</text>
<text text-anchor="start" x="8" y="-251.6" font-family="Times,serif" font-size="13.00">Migration version: 20170606025725</text>
<text text-anchor="start" x="8" y="-237.6" font-family="Times,serif" font-size="13.00">Generated by RailRoady 1.5.3</text>
<text text-anchor="start" x="8" y="-223.6" font-family="Times,serif" font-size="13.00">http://railroady.prestonlee.com</text>
</g>
<!-- ApplicationRecord -->
<g id="node2" class="node"><title>ApplicationRecord</title>
<ellipse fill="none" stroke="black" cx="309" cy="-255" rx="77.1866" ry="18"/>
<text text-anchor="middle" x="309" y="-251.3" font-family="Times,serif" font-size="14.00">ApplicationRecord</text>
</g>
<!-- Workout -->
<g id="node3" class="node"><title>Workout</title>
<ellipse fill="none" stroke="black" cx="619" cy="-18" rx="42.4939" ry="18"/>
<text text-anchor="middle" x="619" y="-14.3" font-family="Times,serif" font-size="14.00">Workout</text>
</g>
<!-- Client -->
<g id="node4" class="node"><title>Client</title>
<ellipse fill="none" stroke="black" cx="437" cy="-255" rx="32.4942" ry="18"/>
<text text-anchor="middle" x="437" y="-251.3" font-family="Times,serif" font-size="14.00">Client</text>
</g>
<!-- Gymcard -->
<g id="node7" class="node"><title>Gymcard</title>
<ellipse fill="none" stroke="black" cx="619" cy="-162" rx="44.393" ry="18"/>
<text text-anchor="middle" x="619" y="-158.3" font-family="Times,serif" font-size="14.00">Gymcard</text>
</g>
<!-- Client&#45;&gt;Gymcard -->
<g id="edge2" class="edge"><title>Client&#45;&gt;Gymcard</title>
<path fill="none" stroke="#f6c543" d="M467.953,-238.524C499.843,-222.578 549.505,-197.747 583.1,-180.95"/>
<ellipse fill="none" stroke="#f6c543" cx="463.998" cy="-240.501" rx="4.00002" ry="4.00002"/>
<polygon fill="#f6c543" stroke="#f6c543" points="583.177,-180.912 594.133,-180.465 587.649,-178.676 592.121,-176.44 592.121,-176.44 592.121,-176.44 587.649,-178.676 590.108,-172.415 583.177,-180.912 583.177,-180.912"/>
</g>
<!-- IcqAssessment -->
<g id="node10" class="node"><title>IcqAssessment</title>
<ellipse fill="none" stroke="black" cx="370" cy="-162" rx="63.8893" ry="18"/>
<text text-anchor="middle" x="370" y="-158.3" font-family="Times,serif" font-size="14.00">IcqAssessment</text>
</g>
<!-- Client&#45;&gt;IcqAssessment -->
<g id="edge6" class="edge"><title>Client&#45;&gt;IcqAssessment</title>
<path fill="none" stroke="#c4f395" d="M420.546,-231.652C410.892,-218.54 398.665,-201.932 388.654,-188.336"/>
<ellipse fill="none" stroke="#c4f395" cx="422.958" cy="-234.928" rx="4.00002" ry="4.00002"/>
<polygon fill="#c4f395" stroke="#c4f395" points="388.374,-187.956 386.069,-177.235 385.41,-183.93 382.445,-179.903 382.445,-179.903 382.445,-179.903 385.41,-183.93 378.821,-182.571 388.374,-187.956 388.374,-187.956"/>
</g>
<!-- Assessment -->
<g id="node11" class="node"><title>Assessment</title>
<ellipse fill="none" stroke="black" cx="504" cy="-162" rx="52.7911" ry="18"/>
<text text-anchor="middle" x="504" y="-158.3" font-family="Times,serif" font-size="14.00">Assessment</text>
</g>
<!-- Client&#45;&gt;Assessment -->
<g id="edge3" class="edge"><title>Client&#45;&gt;Assessment</title>
<path fill="none" stroke="#219ebc" d="M453.486,-231.609C463.298,-218.282 475.761,-201.355 485.852,-187.648"/>
<ellipse fill="none" stroke="#219ebc" cx="451.042" cy="-234.928" rx="4.00002" ry="4.00002"/>
<polygon fill="#219ebc" stroke="#219ebc" points="485.855,-187.644 495.408,-182.26 488.82,-183.618 491.784,-179.592 491.784,-179.592 491.784,-179.592 488.82,-183.618 488.16,-176.924 485.855,-187.644 485.855,-187.644"/>
</g>
<!-- Pollock7 -->
<g id="node12" class="node"><title>Pollock7</title>
<ellipse fill="none" stroke="black" cx="144" cy="-162" rx="42.4939" ry="18"/>
<text text-anchor="middle" x="144" y="-158.3" font-family="Times,serif" font-size="14.00">Pollock7</text>
</g>
<!-- Client&#45;&gt;Pollock7 -->
<g id="edge5" class="edge"><title>Client&#45;&gt;Pollock7</title>
<path fill="none" stroke="#0d1e4a" d="M417.994,-232.691C411.319,-226.407 403.378,-220.117 395,-216 313.942,-176.166 282.511,-202.338 195,-180 191.79,-179.181 188.489,-178.261 185.185,-177.286"/>
<ellipse fill="none" stroke="#0d1e4a" cx="420.905" cy="-235.581" rx="4.00002" ry="4.00002"/>
<polygon fill="#0d1e4a" stroke="#0d1e4a" points="184.899,-177.198 176.681,-169.937 180.124,-175.716 175.348,-174.235 175.348,-174.235 175.348,-174.235 180.124,-175.716 174.015,-178.533 184.899,-177.198 184.899,-177.198"/>
</g>
<!-- Pollock3 -->
<g id="node13" class="node"><title>Pollock3</title>
<ellipse fill="none" stroke="black" cx="246" cy="-162" rx="42.4939" ry="18"/>
<text text-anchor="middle" x="246" y="-158.3" font-family="Times,serif" font-size="14.00">Pollock3</text>
</g>
<!-- Client&#45;&gt;Pollock3 -->
<g id="edge4" class="edge"><title>Client&#45;&gt;Pollock3</title>
<path fill="none" stroke="#ae6476" d="M416.828,-232.81C410.292,-226.786 402.724,-220.615 395,-216 385.474,-210.308 328.555,-190.668 287.902,-176.967"/>
<ellipse fill="none" stroke="#ae6476" cx="420.103" cy="-235.953" rx="4.00002" ry="4.00002"/>
<polygon fill="#ae6476" stroke="#ae6476" points="287.693,-176.896 279.648,-169.444 282.953,-175.303 278.214,-173.71 278.214,-173.71 278.214,-173.71 282.953,-175.303 276.78,-177.975 287.693,-176.896 287.693,-176.896"/>
</g>
<!-- Role -->
<g id="node16" class="node"><title>Role</title>
<ellipse fill="none" stroke="black" cx="708" cy="-162" rx="27.0966" ry="18"/>
<text text-anchor="middle" x="708" y="-158.3" font-family="Times,serif" font-size="14.00">Role</text>
</g>
<!-- Client&#45;&gt;Role -->
<g id="edge1" class="edge"><title>Client&#45;&gt;Role</title>
<path fill="none" stroke="#cd428b" d="M474.527,-242.863C531.116,-225.955 635.553,-194.268 672,-180 673.834,-179.282 675.706,-178.513 677.585,-177.714"/>
<polygon fill="#cd428b" stroke="#cd428b" points="474.459,-242.884 463.59,-241.43 469.668,-244.313 464.877,-245.742 464.877,-245.742 464.877,-245.742 469.668,-244.313 466.163,-250.055 474.459,-242.884 474.459,-242.884"/>
<polygon fill="#cd428b" stroke="#cd428b" points="677.76,-177.635 688.726,-177.663 682.325,-175.595 686.89,-173.555 686.89,-173.555 686.89,-173.555 682.325,-175.595 685.053,-169.446 677.76,-177.635 677.76,-177.635"/>
</g>
<!-- Cycle -->
<g id="node5" class="node"><title>Cycle</title>
<ellipse fill="none" stroke="black" cx="619" cy="-90" rx="31.3957" ry="18"/>
<text text-anchor="middle" x="619" y="-86.3" font-family="Times,serif" font-size="14.00">Cycle</text>
</g>
<!-- Cycle&#45;&gt;Workout -->
<g id="edge7" class="edge"><title>Cycle&#45;&gt;Workout</title>
<path fill="none" stroke="#522a7a" d="M619,-63.6398C619,-58.0629 619,-52.1319 619,-46.4761"/>
<ellipse fill="none" stroke="#522a7a" cx="619" cy="-67.6966" rx="4" ry="4"/>
<polygon fill="#522a7a" stroke="#522a7a" points="619,-46.1043 623.5,-36.1043 619,-41.1043 619,-36.1043 619,-36.1043 619,-36.1043 619,-41.1043 614.5,-36.1044 619,-46.1043 619,-46.1043"/>
</g>
<!-- Equipment -->
<g id="node6" class="node"><title>Equipment</title>
<ellipse fill="none" stroke="black" cx="806" cy="-255" rx="50.0912" ry="18"/>
<text text-anchor="middle" x="806" y="-251.3" font-family="Times,serif" font-size="14.00">Equipment</text>
</g>
<!-- Gymcard&#45;&gt;Cycle -->
<g id="edge8" class="edge"><title>Gymcard&#45;&gt;Cycle</title>
<path fill="none" stroke="#9eed13" d="M619,-135.64C619,-130.063 619,-124.132 619,-118.476"/>
<ellipse fill="none" stroke="#9eed13" cx="619" cy="-139.697" rx="4" ry="4"/>
<polygon fill="#9eed13" stroke="#9eed13" points="619,-118.104 623.5,-108.104 619,-113.104 619,-108.104 619,-108.104 619,-108.104 619,-113.104 614.5,-108.104 619,-118.104 619,-118.104"/>
</g>
<!-- Imc -->
<g id="node8" class="node"><title>Imc</title>
<ellipse fill="none" stroke="black" cx="901" cy="-255" rx="27" ry="18"/>
<text text-anchor="middle" x="901" y="-251.3" font-family="Times,serif" font-size="14.00">Imc</text>
</g>
<!-- Employee -->
<g id="node9" class="node"><title>Employee</title>
<ellipse fill="none" stroke="black" cx="619" cy="-255" rx="46.5926" ry="18"/>
<text text-anchor="middle" x="619" y="-251.3" font-family="Times,serif" font-size="14.00">Employee</text>
</g>
<!-- Employee&#45;&gt;Gymcard -->
<g id="edge10" class="edge"><title>Employee&#45;&gt;Gymcard</title>
<path fill="none" stroke="#37b4b6" d="M619,-228.729C619,-216.725 619,-202.362 619,-190.129"/>
<ellipse fill="none" stroke="#37b4b6" cx="619" cy="-232.884" rx="4" ry="4"/>
<polygon fill="#37b4b6" stroke="#37b4b6" points="619,-190.04 623.5,-180.04 619,-185.04 619,-180.04 619,-180.04 619,-180.04 619,-185.04 614.5,-180.04 619,-190.04 619,-190.04"/>
</g>
<!-- Employee&#45;&gt;Role -->
<g id="edge9" class="edge"><title>Employee&#45;&gt;Role</title>
<path fill="none" stroke="#034d92" d="M642.013,-230.47C655.794,-216.379 673.192,-198.59 686.664,-184.816"/>
<polygon fill="#034d92" stroke="#034d92" points="641.904,-230.582 631.694,-234.585 638.407,-234.156 634.911,-237.731 634.911,-237.731 634.911,-237.731 638.407,-234.156 638.129,-240.877 641.904,-230.582 641.904,-230.582"/>
<polygon fill="#034d92" stroke="#034d92" points="686.704,-184.775 696.913,-180.772 690.2,-181.2 693.696,-177.625 693.696,-177.625 693.696,-177.625 690.2,-181.2 690.479,-174.479 686.704,-184.775 686.704,-184.775"/>
</g>
<!-- Icq -->
<g id="node14" class="node"><title>Icq</title>
<ellipse fill="none" stroke="black" cx="973" cy="-255" rx="27" ry="18"/>
<text text-anchor="middle" x="973" y="-251.3" font-family="Times,serif" font-size="14.00">Icq</text>
</g>
<!-- User -->
<g id="node15" class="node"><title>User</title>
<ellipse fill="none" stroke="black" cx="711" cy="-255" rx="27.0966" ry="18"/>
<text text-anchor="middle" x="711" y="-251.3" font-family="Times,serif" font-size="14.00">User</text>
</g>
<!-- User&#45;&gt;Role -->
<g id="edge11" class="edge"><title>User&#45;&gt;Role</title>
<path fill="none" stroke="#384228" d="M710.095,-226.549C709.717,-215.083 709.279,-201.792 708.901,-190.339"/>
<polygon fill="#384228" stroke="#384228" points="710.106,-226.889 705.938,-237.032 710.271,-231.886 710.436,-236.884 710.436,-236.884 710.436,-236.884 710.271,-231.886 714.933,-236.735 710.106,-226.889 710.106,-226.889"/>
<polygon fill="#384228" stroke="#384228" points="708.891,-190.034 713.059,-179.891 708.727,-185.037 708.562,-180.04 708.562,-180.04 708.562,-180.04 708.727,-185.037 704.064,-180.188 708.891,-190.034 708.891,-190.034"/>
</g>
</g>
</svg>
